# Aspose.3D Wavefront OBJ Exporter
# Copyright 2004-2020 Aspose Pty Ltd.
# File created: 11/16/2020 6:21:32 PM

mtllib material.lib

#
# object hypercasual_prop005
#

v -0.2156687080860138 -0.99218818710750096 0.71963872148832384
v 0.2156687080860138 -0.99218818597100384 0.69363869860014024
v -0.241668701171875 -0.9921881253311744 -0.69363890454927272
v 0.2156687080860138 -0.9921881253311744 -0.69363890454927272
v -0.2156687080860138 0.98352137042575632 0.7196389270586204
v 0.241668701171875 0.98352143116689824 0.69363890417043936
v -0.241668701171875 0.98352155141137248 -0.69363869897897088
v 0.2156687080860138 0.9835215525478696 -0.71963872186715448
v -0.241668701171875 -0.99218818597100384 0.69363869860014024
v -0.2156687080860138 -0.99218818597100384 0.69363869860014024
v 0.241668701171875 -0.99218818597100384 0.69363869860014024
v 0.2156687080860138 -0.99218818710750096 0.71963872148832384
v -0.2156687080860138 -0.99218812419467728 -0.71963892743745624
v -0.2156687080860138 -0.9921881253311744 -0.69363890454927272
v 0.2156687080860138 -0.99218812419467728 -0.71963892743745624
v 0.241668701171875 -0.9921881253311744 -0.69363890454927272
v -0.2156687080860138 1.00952145405508164 0.69363890530693648
v -0.241668701171875 0.98352143116689824 0.69363890417043936
v 0.2156687080860138 1.00952145405508164 0.69363890530693648
v 0.2156687080860138 0.98352137042575632 0.7196389270586204
v -0.2156687080860138 1.00952151469491124 -0.69363869784247648
v -0.2156687080860138 0.9835215525478696 -0.71963872186715448
v 0.2156687080860138 1.00952151469491124 -0.69363869784247648
v 0.241668701171875 0.98352155141137248 -0.69363869897897088
v 0 -0.92431638810434672 -0.4151241885335696
v 0 -0.92431642439564944 0.41512404812261872
# 26 vertices

vn 0 0.99999999999999904 4.371138784264872E-08
vn 0 0.99999999999999904 4.371138784264872E-08
vn 0 0.99999999999999904 4.371138784264872E-08
vn 0 0.99999999999999904 4.371138784264872E-08
vn 0 -1.0404884376313817E-07 0.99999999999999648
vn 0 -1.0404884376313817E-07 0.99999999999999648
vn 0 -1.0404884376313817E-07 0.99999999999999648
vn 0 -1.0404884376313817E-07 0.99999999999999648
vn 1 0 0
vn 1 0 0
vn 1 0 0
vn 1 0 0
vn 0 1.0404883665771081E-07 -0.99999999999999648
vn 0 1.0404883665771081E-07 -0.99999999999999648
vn 0 1.0404883665771081E-07 -0.99999999999999648
vn 0 1.0404883665771081E-07 -0.99999999999999648
vn -1 0 0
vn -1 0 0
vn -1 0 0
vn -1 0 0
vn 0 -0.99999999999999904 -4.371138784264872E-08
vn 0 -0.9999999403953544 -4.371138528913576E-08
vn 0 -0.99999999999999904 -4.371138784264872E-08
vn 0 -0.99999999999999904 -4.371138784264872E-08
vn 0 -0.9999999403953544 -4.371138528913576E-08
vn 0 -0.99999999999999904 -4.371138784264872E-08
vn 0 -0.9999999403953544 -4.371138528913576E-08
vn 0 -0.99999999999999904 -4.371138784264872E-08
vn 0 -0.99999999999999904 -4.371138784264872E-08
vn 0 -0.99999999999999904 -4.371138784264872E-08
vn 0 -0.99999999999999904 -4.371138784264872E-08
vn 0 -0.9999999403953544 -4.371138528913576E-08
vn -0.57735025882720944 0.5773495779393092 0.57735088011040912
vn -0.57735025882720944 0.5773495779393092 0.57735088011040912
vn -0.57735025882720944 0.57734957793930656 0.57735093971505392
vn 0.57735025882720944 0.57734957793930384 0.57735099931969872
vn 0.57735025882720944 0.57734957793930384 0.57735099931969872
vn 0.57735025882720944 0.57734957793930384 0.57735099931969872
vn -0.57735025882720944 0.57735099931969872 -0.57734957793930384
vn -0.57735025882720944 0.57735099931969872 -0.57734957793930384
vn -0.57735025882720944 0.57735099931969872 -0.57734957793930384
vn 0.57735025882720944 0.57735099931969872 -0.57734957793930384
vn 0.57735025882720944 0.57735099931969872 -0.57734957793930384
vn 0.57735025882720944 0.57735099931969872 -0.57734957793930384
vn 0 -0.99999999999999904 -4.371138784264872E-08
vn 0 -0.99999999999999904 -4.371138784264872E-08
vn 0 -0.99999999999999904 -4.371138784264872E-08
vn 0 -0.99999999999999904 -4.371138784264872E-08
vn 0 -0.99999999999999904 -4.371138784264872E-08
vn 0 -0.99999999999999904 -4.371138784264872E-08
vn 0 -0.99999999999999904 -4.371138784264872E-08
vn 0 -0.99999999999999904 -4.371138784264872E-08
vn 0 -0.99999999999999904 -4.371138784264872E-08
vn 0 -0.99999999999999904 -4.371138784264872E-08
vn 0 -0.99999999999999904 -4.371138784264872E-08
vn 0 -0.99999999999999904 -4.371138784264872E-08
vn 0 -0.99999999999999904 -4.371138784264872E-08
vn 0 -0.99999999999999904 -4.371138784264872E-08
vn 0 -0.99999999999999904 -4.371138784264872E-08
vn 0 -0.99999999999999904 -4.371138784264872E-08
vn 0 0.70710590371125056 0.70710757485389352
vn 0 0.70710590371125056 0.70710757485389352
vn 0 0.70710590371125056 0.70710757485389352
vn 0 0.70710590371125056 0.70710757485389352
vn 0.7071067690849304 0.70710676908492912 4.602836189970816E-08
vn 0.7071068286895752 0.70710682868957384 4.602836634060026E-08
vn 0.7071067690849304 0.70710676908492912 4.602836189970816E-08
vn 0.7071067690849304 0.70710676908492912 4.602836189970816E-08
vn 0 0.70710769406318576 -0.70710596331589048
vn 0 0.70710769406318576 -0.70710596331589048
vn 0 0.70710769406318576 -0.70710596331589048
vn 0 0.70710769406318576 -0.70710596331589048
vn -0.7071067690849304 0.70710676908492912 4.602836189970816E-08
vn -0.7071067690849304 0.70710676908492912 4.602836189970816E-08
vn -0.7071068286895752 0.70710682868957384 4.602836634060026E-08
vn -0.7071067690849304 0.70710676908492912 4.602836189970816E-08
vn 0.70710712671279904 -7.357520714901256E-08 0.70710629224776968
vn 0.70710712671279904 -7.357520714901256E-08 0.70710629224776968
vn 0.70710718631744384 -7.35752133662615E-08 0.7071063518524144
vn 0.70710724592208864 -7.357522313622411E-08 0.7071064114570592
vn -0.70710718631744384 -7.357521247808307E-08 0.7071064114570592
vn -0.70710718631744384 -7.357521603079675E-08 0.7071064114570592
vn -0.70710718631744384 -7.357521858430971E-08 0.707106471061704
vn -0.70710718631744384 -7.35752133662615E-08 0.7071063518524144
vn 0.70710718631744384 7.37755260216133E-08 -0.7071063518524144
vn 0.70710718631744384 7.377552246889962E-08 -0.7071063518524144
vn 0.70710718631744384 7.37755260216133E-08 -0.7071063518524144
vn 0.70710718631744384 7.377552246889962E-08 -0.7071063518524144
vn -0.70710718631744384 7.357520981354781E-08 -0.7071063518524144
vn -0.70710718631744384 7.35752133662615E-08 -0.7071063518524144
vn -0.70710718631744384 7.357520981354781E-08 -0.7071063518524144
vn -0.70710718631744384 7.35752133662615E-08 -0.7071063518524144
vn 0.30018949508666992 -0.95387959480285552 -4.1695400909702585E-08
vn 0.30018949508666992 -0.95387959480285552 -4.1695400909702585E-08
vn 0.30018949508666992 -0.95387959480285552 -4.1695400909702585E-08
vn 0.30018949508666992 -0.95387959480285552 -4.1695400909702585E-08
vn 0 -0.97156746230312768 0.23676298782204164
vn 0 -0.97156746230312768 0.23676298782204164
vn 0 -0.97156746230312704 0.23676297292088044
vn -0.30018949508666992 -0.95387959480285552 -4.1695400909702585E-08
vn -0.30018949508666992 -0.95387959480285552 -4.1695400909702585E-08
vn -0.30018949508666992 -0.95387959480285552 -4.1695400909702585E-08
vn -0.30018949508666992 -0.95387959480285552 -4.1695400909702585E-08
vn 0 -0.971567501209288 -0.23676314726497372
vn 0 -0.971567501209288 -0.23676314726497372
vn 0 -0.97156738199999888 -0.2367631323638074
# 106 vertex normals

vt 0.25199726223945616 0.59558635950088504 0
vt 0.25199726223945616 0.56480854749679568 0
vt 0.35618934035301208 0.5648086071014404 0
vt 0.35618931055068968 0.59558635950088504 0
vt 0.25468459725379944 0.60099494457244872 0
vt 0.28615161776542664 0.60099494457244872 0
vt 0.28612908720970152 0.74556416273117072 0
vt 0.25470709800720216 0.74556416273117072 0
vt 0.49841052293777464 0.74764436483383184 0
vt 0.3968234062194824 0.74764436483383184 0
vt 0.3968234360218048 0.60296773910522464 0
vt 0.49841052293777464 0.60296773910522464 0
vt 0.35778918862342836 0.59631776809692384 0
vt 0.35778915882110596 0.56631052494049072 0
vt 0.49565166234970096 0.56633204221725464 0
vt 0.49565166234970096 0.59629631042480472 0
vt 0.2916288673877716 0.60051250457763672 0
vt 0.39487728476524352 0.60054802894592288 0
vt 0.39471307396888736 0.74747222661972048 0
vt 0.29169225692749024 0.74743682146072384 0
vt 0.465876430273056 0.5597591400146484 0
vt 0.46401163935661312 0.557894229888916 0
vt 0.465876430273056 0.557894229888916 0
vt 0.49681425094604496 0.557894229888916 0
vt 0.49867910146713256 0.557894229888916 0
vt 0.49681425094604496 0.5597591400146484 0
vt 0.462855726480484 0.5628080368041992 0
vt 0.46477910876274112 0.56088459491729736 0
vt 0.46477910876274112 0.5628080368041992 0
vt 0.49668878316879272 0.5628080368041992 0
vt 0.49668878316879272 0.56088459491729736 0
vt 0.49861222505569456 0.5628080368041992 0
vt 0.25440153479576112 0.74810791015624992 0
vt 0.25214803218841552 0.74594300985336304 0
vt 0.28868815302848816 0.74594306945800784 0
vt 0.28643468022346496 0.74810796976089472 0
vt 0.49601292610168456 0.56389164924621584 0
vt 0.49807739257812496 0.56604063510894776 0
vt 0.49807739257812496 0.5965876579284668 0
vt 0.49601298570632936 0.59873664379119872 0
vt 0.46200135350227352 0.56086510419845584 0
vt 0.46200135350227352 0.5628178119659424 0
vt 0.35780867934226988 0.5628178119659424 0
vt 0.35780867934226988 0.56086504459381104 0
vt 0.358924001455307 0.55981552600860592 0
vt 0.358924001455307 0.55786275863647464 0
vt 0.46311578154563904 0.55786275863647464 0
vt 0.46311578154563904 0.55981552600860592 0
vt 0.25199729204177856 0.56204700469970704 0
vt 0.35618939995765688 0.56204706430435184 0
vt 0.35618931055068968 0.5983480215072632 0
vt 0.25199726223945616 0.5983479022979736 0
vt 0.28878465294837952 0.6010490655899048 0
vt 0.25205153226852416 0.6010490655899048 0
vt 0.35784080624580384 0.59882867336273192 0
vt 0.35784077644348144 0.56379967927932736 0
vt 0.25199118256568908 0.52680593729019168 0
vt 0.35775327682495116 0.52680593729019168 0
vt 0.33632189035415648 0.54347372055053712 0
vt 0.273422509431839 0.54347372055053712 0
vt 0.35775327682495116 0.56014150381088256 0
vt 0.25199118256568908 0.56014156341552736 0
# 62 texture coords

g hypercasual_prop005
usemtl Atlas
s 1
f 17/1/1 19/2/2 23/3/3 21/4/4
f 1/5/5 12/6/6 20/7/7 5/8/8
f 11/9/9 16/10/10 24/11/11 6/12/12
f 15/13/13 13/14/14 22/15/15 8/16/16
f 3/17/17 9/18/18 18/19/19 7/20/20
f 1/21/21 9/22/22 10/23/23
f 2/24/24 11/25/25 12/26/26
f 3/27/27 13/28/28 14/29/29
f 4/30/30 15/31/31 16/32/32
f 5/8/33 17/33/34 18/34/35
f 6/35/36 19/36/37 20/7/38
f 7/37/39 21/38/40 22/15/41
f 8/16/42 23/39/43 24/40/44
f 10/41/45 9/42/46 3/43/47 14/44/48
f 14/29/49 13/28/50 15/31/51 4/30/52
f 4/45/53 16/46/54 11/47/55 2/48/56
f 2/24/57 12/26/58 1/21/59 10/23/60
f 17/33/61 5/8/62 20/7/63 19/36/64
f 19/2/65 6/49/66 24/50/67 23/3/68
f 23/39/69 8/16/70 22/15/71 21/38/72
f 21/4/73 7/51/74 18/52/75 17/1/76
f 12/6/77 11/53/78 6/35/79 20/7/80
f 5/8/81 18/34/82 9/54/83 1/5/84
f 16/55/85 15/13/86 8/16/87 24/40/88
f 13/14/89 3/56/90 7/37/91 22/15/92
f 10/57/93 14/58/94 25/59/95 26/60/96
f 14/58/97 4/61/98 25/59/99
f 4/61/100 2/62/101 26/60/102 25/59/103
f 2/62/104 10/57/105 26/60/106
#29 polygons

