# This file uses centimeters as units for non-parametric coordinates.

mtllib Edificio.mtl
g default
v -71.073296 0.089513 53.329510
v 32.534912 0.089513 53.329510
v -71.073296 32.246435 53.329510
v 32.534912 32.246435 53.329510
v -71.073296 32.246435 -58.124990
v 32.534912 32.246435 -58.124990
v -71.073296 0.089513 -58.124990
v 32.534912 0.089513 -58.124990
v -76.183751 -1.496621 58.826982
v 37.645367 -1.496621 58.826982
v 37.645367 33.832569 58.826982
v -76.183751 33.832569 58.826982
v 37.645367 33.832569 -63.622462
v -76.183751 33.832569 -63.622462
v 37.645367 -1.496621 -63.622462
v -76.183751 -1.496621 -63.622462
vt -0.413245 -0.539447
vt 3.324604 -0.539447
vt 3.324604 0.593615
vt -0.413245 0.593615
vt -4.233436 -0.539459
vt -0.495537 -0.539459
vt -0.495537 0.593604
vt -4.233436 0.593604
vt 3.660290 1.657401
vt 3.660290 2.688723
vt 0.258027 2.688723
vt 0.258027 1.657401
vt 0.175711 1.657435
vt 0.175711 2.688757
vt -3.226514 2.688757
vt -3.226514 1.657435
vt -2.398828 -0.555710
vt -2.398828 -1.688757
vt 1.339020 -1.688757
vt 1.339020 -0.555710
vt 3.406933 -0.539451
vt 7.144831 -0.539451
vt 7.144831 0.593611
vt 3.406933 0.593611
vt -2.712625 1.641169
vt -2.712625 0.609847
vt 0.689637 0.609847
vt 0.689637 1.641169
vt 7.144831 2.688719
vt 3.742606 2.688719
vt 3.742606 1.657394
vt 7.144831 1.657394
vt -6.219403 -1.688753
vt -2.481504 -1.688753
vt -2.481504 -0.555691
vt -6.219403 -0.555691
vt 1.445287 -0.555694
vt 1.445287 -1.688741
vt 5.183137 -1.688741
vt 5.183137 -0.555694
vt -6.219403 1.641181
vt -6.219403 0.609840
vt -2.817142 0.609840
vt -2.817142 1.641181
vt 0.791522 1.641169
vt 0.791522 0.609847
vt 4.193785 0.609847
vt 4.193785 1.641169
vn 0.000000 0.000000 1.000000
vn 0.000000 0.000000 1.000000
vn 0.000000 0.000000 1.000000
vn 0.000000 0.000000 1.000000
vn 0.000000 1.000000 0.000000
vn 0.000000 1.000000 0.000000
vn 0.000000 1.000000 0.000000
vn 0.000000 1.000000 0.000000
vn 0.000000 0.000000 -1.000000
vn 0.000000 0.000000 -1.000000
vn 0.000000 0.000000 -1.000000
vn 0.000000 0.000000 -1.000000
vn 0.000000 -1.000000 0.000000
vn 0.000000 -1.000000 0.000000
vn 0.000000 -1.000000 0.000000
vn 0.000000 -1.000000 0.000000
vn 1.000000 0.000000 0.000000
vn 1.000000 0.000000 0.000000
vn 1.000000 0.000000 0.000000
vn 1.000000 0.000000 0.000000
vn -1.000000 0.000000 0.000000
vn -1.000000 0.000000 0.000000
vn -1.000000 0.000000 0.000000
vn -1.000000 0.000000 0.000000
vn 0.000000 0.000000 -1.000000
vn 0.000000 0.000000 -1.000000
vn 0.000000 0.000000 -1.000000
vn 0.000000 0.000000 -1.000000
vn 0.000000 -1.000000 0.000000
vn 0.000000 -1.000000 0.000000
vn 0.000000 -1.000000 0.000000
vn 0.000000 -1.000000 0.000000
vn 0.000000 0.000000 1.000000
vn 0.000000 0.000000 1.000000
vn 0.000000 0.000000 1.000000
vn 0.000000 0.000000 1.000000
vn 0.000000 1.000000 0.000000
vn 0.000000 1.000000 0.000000
vn 0.000000 1.000000 0.000000
vn 0.000000 1.000000 0.000000
vn -1.000000 0.000000 0.000000
vn -1.000000 0.000000 0.000000
vn -1.000000 0.000000 0.000000
vn -1.000000 0.000000 0.000000
vn 1.000000 0.000000 0.000000
vn 1.000000 0.000000 0.000000
vn 1.000000 0.000000 0.000000
vn 1.000000 0.000000 0.000000
s off
g pCube1
usemtl lambert5SG
f 9/33/1 10/34/2 11/35/3 12/36/4
f 12/17/5 11/18/6 13/19/7 14/20/8
f 14/37/9 13/38/10 15/39/11 16/40/12
f 16/21/13 15/22/14 10/23/15 9/24/16
f 10/1/17 15/2/18 13/3/19 11/4/20
f 16/5/21 9/6/22 12/7/23 14/8/24
f 1/41/25 3/42/26 4/43/27 2/44/28
f 3/25/29 5/26/30 6/27/31 4/28/32
f 5/45/33 7/46/34 8/47/35 6/48/36
f 7/29/37 1/30/38 2/31/39 8/32/40
f 2/9/41 4/10/42 6/11/43 8/12/44
f 7/13/45 5/14/46 3/15/47 1/16/48
