# Aspose.3D Wavefront OBJ Exporter
# Copyright 2004-2020 Aspose Pty Ltd.
# File created: 11/16/2020 6:23:11 PM

mtllib material.lib

#
# object hypercasual_prop018
#

v -3.0112001895904541 -0.07780492453565815 4.46549987452873152
v 3.0427703857421875 -0.10937519381320998 4.43392943857843848
v -3.0112001895904541 0.077804534149263 4.46549988133063632
v 3.0427703857421875 0.10937480618678986 4.4339294481403044
v -2.78346920013427728 0.077804534149263 4.46549988133063632
v -2.582597017288208 0.10937480618678986 4.4339294481403044
v -2.67841339111328128 0.0105523899317719 4.46549987839095232
v -3.0427703857421875 -0.10937519381320998 4.43392943857843848
v 3.011199951171875 -0.07780492453565815 4.46549987452873152
v -3.0427703857421875 0.10937480618678986 4.4339294481403044
v 3.011199951171875 0.077804534149263 4.46549988133063632
v -2.77422976493835456 0.10937480618678986 4.4339294481403044
v -2.57335758209228512 0.07780451924810181 4.46549988133063632
v -2.67841339111328128 0.04803736498081151 4.43392944545916024
v -3.0427703857421875 -0.10937480618678986 -4.4339294481403044
v 3.0427703857421875 -0.10937480618678986 -4.4339294481403044
v -3.0427703857421875 0.10937519381320998 -4.43392943857843848
v -2.77422976493835456 0.10937519381320998 -4.43392943857843848
v -3.0112001895904541 -0.077804534149263 -4.46549988133063632
v 3.011199951171875 -0.077804534149263 -4.46549988133063632
v 3.011199951171875 0.07780492453565815 -4.46549987452873152
v -2.57335758209228512 0.07780490963449696 -4.46549987452873152
v -2.67841339111328128 0.01055278031816704 -4.4654998774684156
v -2.78346920013427728 0.07780492453565815 -4.46549987452873152
v -3.0112001895904541 0.07780492453565815 -4.46549987452873152
v 3.0427703857421875 0.10937519381320998 -4.43392943857843848
v -2.582597017288208 0.10937519381320998 -4.43392943857843848
v -2.67841339111328128 0.04803775260723163 -4.43392944125958264
# 28 vertices

vn 0 -0.9999999403953544 -4.371138528913576E-08
vn 0 -0.99999999999999904 -4.371138784264872E-08
vn 0 -0.9999999403953544 -4.371138528913576E-08
vn 0 -0.9999999403953544 -4.371138528913576E-08
vn 0 -0.99999999999999904 -4.371138784264872E-08
vn 0 -0.9999999403953544 -4.371138528913576E-08
vn 0 0.9999999403953544 4.371138528913576E-08
vn 0 0.99999999999999904 4.371138784264872E-08
vn 0 0.9999999403953544 4.371138528913576E-08
vn 0 0.9999999403953544 4.371138528913576E-08
vn 0 0.99999999999999904 4.371138784264872E-08
vn 0 0.9999999403953544 4.371138528913576E-08
vn 0 -4.371138784264872E-08 0.99999999999999904
vn 0 -4.371138784264872E-08 0.99999999999999904
vn 0 -4.371138784264872E-08 0.99999999999999904
vn 0 -4.371138784264872E-08 0.99999999999999904
vn 0 -4.371138784264872E-08 0.99999999999999904
vn 0 -4.371138784264872E-08 0.99999999999999904
vn 0 -4.371138528913576E-08 0.9999999403953544
vn 0 -4.371138784264872E-08 0.99999999999999904
vn 0 -4.371138784264872E-08 0.99999999999999904
vn 0 -4.371138528913576E-08 0.9999999403953544
vn 0 -4.371138784264872E-08 0.99999999999999904
vn 0 -4.371138784264872E-08 0.99999999999999904
vn 0 -4.371138528913576E-08 0.9999999403953544
vn 0 -4.371138784264872E-08 0.99999999999999904
vn 0 -4.371138784264872E-08 0.99999999999999904
vn 0.9999999403953552 0 0
vn 1 0 0
vn 0.9999999403953552 0 0
vn 0.9999999403953552 0 0
vn 1 0 0
vn 0.9999999403953552 0 0
vn 0 0.99999999999999904 4.371138784264872E-08
vn 0 0.99999999999999904 4.371138784264872E-08
vn 0 0.99999999999999904 4.371138784264872E-08
vn 0 0.99999999999999904 4.371138784264872E-08
vn 0 0.99999999999999904 4.371138784264872E-08
vn 0 0.99999999999999904 4.371138784264872E-08
vn 0.53914690017700192 0.84221166372299104 3.681424076695805E-08
vn 0.53914701938629152 0.842211723327636 3.6814243209448705E-08
vn 0.53914690017700192 0.84221166372299104 3.681424076695805E-08
vn 0.53914690017700192 0.84221166372299104 3.681424076695805E-08
vn 0.53914701938629152 0.842211723327636 3.6814243209448705E-08
vn 0.53914690017700192 0.84221166372299104 3.681424076695805E-08
vn 0 -0.7071087073421 0.70710489043224008
vn 0 -0.7071087073421 0.70710489043224008
vn 0 -0.7071087073421 0.70710489043224008
vn 0 -0.7071087073421 0.70710489043224008
vn 0 -0.70710864773746048 0.70710500964153232
vn 0 -0.7071087073421 0.70710489043224008
vn 0 0.70710852631573552 0.70710495224963808
vn 0 0.70710852631573552 0.70710495224963808
vn 0.19449253380298616 0.66456129973530768 0.72147831245420144
vn 0.19449253380298616 0.66456129973530768 0.72147831245420144
vn 0.194492444396019 0.66456129973531008 0.72147825284955664
vn 0 0.70710852631573552 0.70710495224963808
vn 0.7071067690849304 -3.090861822041546E-08 0.70710676908492976
vn 0.7071068286895752 -3.090862088495072E-08 0.70710682868957456
vn 0.7071067690849304 -3.090861822041546E-08 0.70710676908492976
vn 0.7071067690849304 -3.090861822041546E-08 0.70710676908492976
vn 0.7071067690849304 -3.090861822041546E-08 0.70710676908492976
vn 0.7071067690849304 -3.090861822041546E-08 0.70710676908492976
vn -0.70710939168930056 -3.090850364539932E-08 0.7071041464805596
vn -0.70710939168930056 -3.090850364539932E-08 0.7071041464805596
vn -0.70710951089859008 -3.090850364539932E-08 0.7071041464805596
vn -0.70710951089859008 -3.090850364539932E-08 0.7071041464805596
vn -0.70710945129394528 -3.090850364539932E-08 0.7071041464805596
vn -0.70710939168930056 -3.090850364539932E-08 0.7071041464805596
vn -0.19449256360530852 0.66456112092136536 0.72147849126812784
vn -0.1944924145936966 0.664561120921368 0.7214784316634832
vn -6.88556460112788E-12 0.7071086455250224 0.70710501185428824
vn -6.88556460112788E-12 0.7071086455250224 0.70710501185428824
vn 0 0.7071086455250248 0.70710495224964344
vn -0.19449256360530852 0.66456112092136536 0.72147849126812784
vn 0.194492444396019 0.66456129973531008 0.72147825284955664
vn 0.19449253380298616 0.66456129973530768 0.72147831245420144
vn 0.38123545050621032 0.59553506859783752 0.70710500697725224
vn 0.38123545050621032 0.59553506859783752 0.70710500697725224
vn 0.38123539090156552 0.59553500899319008 0.7071050665818944
vn 0.194492444396019 0.66456129973531008 0.72147825284955664
vn -0.38123548030853272 0.59553500899318744 0.7071051261865392
vn -0.38123545050621032 0.59553500899319008 0.7071050665818944
vn -0.1944924145936966 0.664561120921368 0.7214784316634832
vn -0.1944924145936966 0.664561120921368 0.7214784316634832
vn -0.19449256360530852 0.66456112092136536 0.72147849126812784
vn -0.38123548030853272 0.59553500899318744 0.7071051261865392
vn -0.9999999403953552 0 0
vn -1 0 0
vn -0.9999999403953552 0 0
vn -0.9999999403953552 0 0
vn -1 0 0
vn -0.9999999403953552 0 0
vn 0 4.371138784264872E-08 -0.99999999999999904
vn 0 4.371138784264872E-08 -0.99999999999999904
vn 0 4.371138784264872E-08 -0.99999999999999904
vn 0 4.371138784264872E-08 -0.99999999999999904
vn 0 4.371138784264872E-08 -0.99999999999999904
vn 0 4.371138784264872E-08 -0.99999999999999904
vn 0 4.371138784264872E-08 -0.99999999999999904
vn 0 4.371138784264872E-08 -0.99999999999999904
vn 0 4.371138784264872E-08 -0.99999999999999904
vn 0 4.371138784264872E-08 -0.99999999999999904
vn 0 4.371138784264872E-08 -0.99999999999999904
vn 0 4.371138784264872E-08 -0.99999999999999904
vn 0 4.371138784264872E-08 -0.99999999999999904
vn 0 4.371138784264872E-08 -0.99999999999999904
vn 0 4.371138784264872E-08 -0.99999999999999904
vn 0 -0.7071086455250248 -0.70710495224964344
vn 0 -0.7071085859203752 -0.70710507145893032
vn 0 -0.7071086455250248 -0.70710495224964344
vn 0 -0.7071086455250248 -0.70710495224964344
vn 0 -0.7071086455250248 -0.70710495224964344
vn 0 -0.7071086455250248 -0.70710495224964344
vn 0 0.70710858813281056 -0.70710489043224544
vn 0.194492444396019 0.66456130320429688 -0.72147825435640784
vn 0.19449253380298616 0.6645613628089416 -0.72147825435640512
vn 0.19449253380298616 0.6645613628089416 -0.72147825435640512
vn 0 0.70710858813281056 -0.70710489043224544
vn 0 0.70710858813281056 -0.70710489043224544
vn 0.7071067690849304 3.090861822041546E-08 -0.70710676908492976
vn 0.7071067690849304 3.090861822041546E-08 -0.70710676908492976
vn 0.7071067690849304 3.090861822041546E-08 -0.70710676908492976
vn 0.7071067690849304 3.090861822041546E-08 -0.70710676908492976
vn 0.7071068286895752 3.090862088495072E-08 -0.70710682868957456
vn 0.7071067690849304 3.090861822041546E-08 -0.70710676908492976
vn -0.70710939168930056 3.090850364539932E-08 -0.7071041464805596
vn -0.70710945129394528 3.090850364539932E-08 -0.7071041464805596
vn -0.70710951089859008 3.090850364539932E-08 -0.7071041464805596
vn -0.70710951089859008 3.090850364539932E-08 -0.7071041464805596
vn -0.70710939168930056 3.090850364539932E-08 -0.7071041464805596
vn -0.70710939168930056 3.090850364539932E-08 -0.7071041464805596
vn -0.19449256360530852 0.6645611839950152 -0.7214784331703472
vn 0 0.7071087073421 -0.70710489043224008
vn -6.88556460112788E-12 0.70710870734210248 -0.70710495003688488
vn -6.88556460112788E-12 0.70710870734210248 -0.70710495003688488
vn -0.194492444396019 0.66456124359965728 -0.7214783735657
vn -0.19449256360530852 0.6645611839950152 -0.7214784331703472
vn 0.194492444396019 0.66456130320429688 -0.72147825435640784
vn 0.38123539090156552 0.5955350708102756 -0.707105014518568
vn 0.38123545050621032 0.59553513041491768 -0.7071049549139208
vn 0.38123545050621032 0.59553513041491768 -0.7071049549139208
vn 0.19449253380298616 0.6645613628089416 -0.72147825435640512
vn 0.194492444396019 0.66456130320429688 -0.72147825435640784
vn -0.38123548030853272 0.59553507081027816 -0.7071050741232128
vn -0.19449256360530852 0.6645611839950152 -0.7214784331703472
vn -0.194492444396019 0.66456124359965728 -0.7214783735657
vn -0.194492444396019 0.66456124359965728 -0.7214783735657
vn -0.38123545050621032 0.5955350708102756 -0.707105014518568
vn -0.38123548030853272 0.59553507081027816 -0.7071050741232128
vn -0.53914690017700192 0.84221166372299104 3.681424076695805E-08
vn -0.53914701938629152 0.842211723327636 3.6814243209448705E-08
vn -0.53914690017700192 0.84221166372299104 3.681424076695805E-08
vn -0.53914690017700192 0.84221166372299104 3.681424076695805E-08
vn -0.53914701938629152 0.842211723327636 3.6814243209448705E-08
vn -0.53914690017700192 0.84221166372299104 3.681424076695805E-08
# 156 vertex normals

vt 0.97457695007324224 0.6450931429862976 0
vt 0.99389171600341792 0.6450931429862976 0
vt 0.97481036186218256 0.67165142297744752 0
vt 0.97481036186218256 0.67106646299362184 0
vt 0.99495118856430048 0.67134922742843624 0
vt 0.99495118856430048 0.65823203325271608 0
vt 0.99529016017913824 0.65823203325271608 0
vt 0.99529016017913824 0.67039555311203 0
vt 0.99514365196228032 0.67062443494796752 0
vt 0.99529016017913824 0.67085319757461544 0
vt 0.99529016017913824 0.67134922742843624 0
vt 0.99488246440887456 0.65816324949264528 0
vt 0.9941251277923584 0.67106646299362184 0
vt 0.9941251277923584 0.67165142297744752 0
vt 0.99488246440887456 0.67141801118850712 0
vt 0.97481036186218256 0.67064911127090456 0
vt 0.99535888433456416 0.67141801118850712 0
vt 0.99535888433456416 0.67083305120468136 0
vt 0.99535888433456416 0.65816324949264528 0
vt 0.99535888433456416 0.67041569948196408 0
vt 0.99522531032562256 0.67062443494796752 0
vt 0.97481036186218256 0.65839666128158568 0
vt 0.9941251277923584 0.65839666128158568 0
vt 0.9941251277923584 0.67064911127090456 0
vt 0.97481036186218256 0.67085784673690792 0
vt 0.9941251277923584 0.67085784673690792 0
vt 0.99419391155242912 0.67108660936355592 0
vt 0.99419391155242912 0.67158263921737672 0
vt 0.99419391155242912 0.65846544504165648 0
vt 0.99419391155242912 0.67062896490097048 0
vt 0.99389171600341792 0.65834778547286984 0
vt 0.97457695007324224 0.65834778547286984 0
vt 0.99429893493652336 0.67136186361312864 0
vt 0.99429893493652336 0.65204709768295288 0
vt 0.99477541446685792 0.65204709768295288 0
vt 0.99477541446685792 0.67136186361312864 0
vt 0.99436771869659424 0.65197831392288208 0
vt 0.99470663070678704 0.65197831392288208 0
vt 0.97399348020553584 0.64520984888076784 0
vt 0.9744699597358704 0.64520984888076784 0
vt 0.9744699001312256 0.6645246148109436 0
vt 0.97399348020553584 0.6645246148109436 0
vt 0.97440117597579952 0.6645933985710144 0
vt 0.9939604997634888 0.64516180753707888 0
vt 0.97406226396560672 0.6645933985710144 0
vt 0.9954659342765808 0.65827995538711544 0
vt 0.9939604997634888 0.65827900171279904 0
vt 0.97411018610000608 0.664997398853302 0
vt 0.9743574261665344 0.66498082876205448 0
vt 0.99580484628677376 0.65827995538711544 0
vt 0.99580484628677376 0.65877598524093624 0
vt 0.9744078516960144 0.66507488489151 0
vt 0.974136769771576 0.66509312391281128 0
vt 0.97445023059844976 0.66481512784957888 0
vt 0.97450965642929072 0.66489320993423464 0
vt 0.97322511672973632 0.74356955289840704 0
vt 0.99253988265991216 0.74356955289840704 0
vt 0.97322511672973632 0.7437782883644104 0
vt 0.99565839767456048 0.65900486707687376 0
vt 0.99580484628677376 0.65923362970352176 0
vt 0.99580484628677376 0.67139714956283568 0
vt 0.9954659342765808 0.67139714956283568 0
vt 0.99253988265991216 0.7437782883644104 0
# 63 texture coords

g hypercasual_prop018
usemtl Default
s 1
f 15/2/1 16/31/2 2/32/3
f 2/32/4 8/1/5 15/2/6
f 12/4/7 18/13/8 17/14/9
f 17/14/10 10/3/11 12/4/12
f 9/6/13 11/7/14 13/8/15
f 9/6/16 13/8/17 7/9/18
f 1/5/19 9/6/20 7/9/21
f 1/5/22 7/9/23 5/10/24
f 1/5/25 5/10/26 3/11/27
f 16/34/28 26/35/29 4/36/30
f 4/36/31 2/33/32 16/34/33
f 6/16/34 4/22/35 26/23/36
f 26/23/37 27/24/38 6/16/39
f 14/25/40 28/26/41 18/13/42
f 18/13/43 12/4/44 14/25/45
f 2/12/46 9/6/47 1/5/48
f 1/5/49 8/15/50 2/12/51
f 10/17/52 3/11/53 5/10/54
f 5/10/55 12/18/56 10/17/57
f 9/6/58 2/12/59 4/19/60
f 4/19/61 11/7/62 9/6/63
f 3/11/64 10/17/65 8/15/66
f 8/15/67 1/5/68 3/11/69
f 6/20/70 13/8/71 11/7/72
f 11/7/73 4/19/74 6/20/75
f 12/18/76 5/10/77 7/9/78
f 7/9/79 14/21/80 12/18/81
f 14/21/82 7/9/83 13/8/84
f 13/8/85 6/20/86 14/21/87
f 8/39/88 10/40/89 17/41/90
f 17/41/91 15/42/92 8/39/93
f 19/46/94 25/50/95 24/51/96
f 19/46/97 24/51/98 23/59/99
f 22/60/100 21/61/101 20/62/102
f 23/59/103 22/60/104 20/62/105
f 19/46/106 23/59/107 20/62/108
f 16/31/109 15/2/110 19/44/111
f 19/44/112 20/47/113 16/31/114
f 17/14/115 18/13/116 24/27/117
f 24/27/118 25/28/119 17/14/120
f 20/37/121 21/38/122 26/35/123
f 26/35/124 16/34/125 20/37/126
f 25/43/127 19/45/128 15/42/129
f 15/42/130 17/41/131 25/43/132
f 27/24/133 26/23/134 21/29/135
f 21/29/136 22/30/137 27/24/138
f 18/48/139 28/49/140 23/52/141
f 23/52/142 24/53/143 18/48/144
f 28/49/145 27/54/146 22/55/147
f 22/55/148 23/52/149 28/49/150
f 6/56/151 27/57/152 28/63/153
f 28/63/154 14/58/155 6/56/156
#52 polygons

