# Aspose.3D Wavefront OBJ Exporter
# Copyright 2004-2020 Aspose Pty Ltd.
# File created: 11/16/2020 6:22:22 PM

mtllib material.lib

#
# object hypercasual_prop012
#

v 0.44664436578750608 0.41726129161243288 0.24841875171666296
v 0.47404137253761288 0.39986998928661296 -0.24841868619639812
v -0.47404137253761288 -0.53125847471828336 0.24841866555206388
v -0.44705161452293392 -0.47894666684741912 0.2484186827398468
v -0.47092956304550168 -0.50940335882778112 0.24841868140854252
v -0.4179667234420776 -0.54916382921810024 0.24841866476939596
v -0.45638710260391232 -0.54451192511196008 0.24841866497273716
v -0.47404137253761288 -0.53125845300082944 -0.24841877160079828
v -0.4179667234420776 -0.54916380750064632 -0.2484187723834662
v -0.45638710260391232 -0.54451190339450616 -0.248418772180125
v -0.44705161452293392 -0.4789466451299652 -0.24841875441301536
v -0.47092956304550168 -0.50940333711032712 -0.24841875574431964
v 0.46057471632957456 -0.53402255879764336 -0.2484187717216212
v 0.47404137253761288 -0.48978619681720584 -0.2484187548868272
v 0.41633841395378112 -0.54916380750064632 -0.2484187723834662
v 0.46057471632957456 -0.53402258051509736 0.24841866543124096
v 0.41633841395378112 -0.54916382921810024 0.24841866476939596
v 0.47404137253761288 -0.48978621853465976 0.24841868226603496
v 0.47404137253761288 0.39986996756915896 0.24841875095646404
v 0.44664436578750608 0.41726131332988688 -0.2484186854361992
v 0.44664436578750608 0.54916382921810024 -0.24841866476939596
v 0.44664436578750608 0.54916380750064632 0.2484187723834662
v 0.47404137253761288 0.54916380750064632 0.2484187723834662
v 0.47404137253761288 0.54916382921810024 -0.24841866476939596
# 24 vertices

vn 0.16414478421211242 -0.9864363074302664 -4.311850010374485E-08
vn -0.06020955368876457 -0.9981857538223256 -4.3632084723022047E-08
vn -0.06020955368876457 -0.9981857538223256 -4.3632084723022047E-08
vn -0.06020955368876457 -0.9981857538223256 -4.3632084723022047E-08
vn 0.16414478421211242 -0.9864363074302664 -4.311850010374485E-08
vn 0.16414478421211242 -0.9864363074302664 -4.311850010374485E-08
vn -0.74886417388916016 0.66272348165512032 2.8968563103859424E-08
vn -0.70809847116470336 0.70611363649368216 3.086520705686269E-08
vn -0.70809847116470336 0.70611363649368216 3.086520705686269E-08
vn -0.70809847116470336 0.70611363649368216 3.086520705686269E-08
vn -0.74886417388916016 0.66272348165512032 2.8968563103859424E-08
vn -0.74886417388916016 0.66272348165512032 2.8968563103859424E-08
vn 0 -4.371138784264872E-08 0.99999999999999904
vn 0 -4.371138784264872E-08 0.99999999999999904
vn 0 -4.371138784264872E-08 0.99999999999999904
vn 0 -4.371138784264872E-08 0.99999999999999904
vn 0 -4.371138784264872E-08 0.99999999999999904
vn 0 -4.371138784264872E-08 0.99999999999999904
vn 0 -4.371138784264872E-08 0.99999999999999904
vn 0 -4.371138784264872E-08 0.99999999999999904
vn 0 -4.371138784264872E-08 0.99999999999999904
vn 0 -4.371138784264872E-08 0.99999999999999904
vn 0 -4.371138784264872E-08 0.99999999999999904
vn 0 -4.371138784264872E-08 0.99999999999999904
vn 1 0 0
vn 0.98910409212112432 -0.14721763134002672 -6.43508699105233E-09
vn 0.98910409212112432 -0.14721763134002672 -6.43508699105233E-09
vn 0.98910409212112432 -0.14721763134002672 -6.43508699105233E-09
vn 1 0 0
vn 1 0 0
vn 0 4.371138784264872E-08 -0.99999999999999904
vn 0 4.371138784264872E-08 -0.99999999999999904
vn 0 4.371138784264872E-08 -0.99999999999999904
vn 0 4.371138784264872E-08 -0.99999999999999904
vn 0 4.371138784264872E-08 -0.99999999999999904
vn 0 4.371138784264872E-08 -0.99999999999999904
vn 0 4.371138784264872E-08 -0.99999999999999904
vn 0 4.371138784264872E-08 -0.99999999999999904
vn 0 4.371138784264872E-08 -0.99999999999999904
vn 0 4.371138784264872E-08 -0.99999999999999904
vn 0 4.371138784264872E-08 -0.99999999999999904
vn 0 4.371138784264872E-08 -0.99999999999999904
vn -0.37298816442489624 -0.92783612012863056 -4.0557004643559935E-08
vn -0.37298816442489624 -0.92783612012863056 -4.0557004643559935E-08
vn -0.06020955368876457 -0.9981857538223256 -4.3632084723022047E-08
vn -0.06020955368876457 -0.9981857538223256 -4.3632084723022047E-08
vn -0.06020955368876457 -0.9981857538223256 -4.3632084723022047E-08
vn -0.37298816442489624 -0.92783612012863056 -4.0557004643559935E-08
vn -0.6003709435462952 -0.79972171783447184 -3.495694622657197E-08
vn -0.6003709435462952 -0.79972171783447184 -3.495694622657197E-08
vn -0.37298816442489624 -0.92783612012863056 -4.0557004643559935E-08
vn -0.37298816442489624 -0.92783612012863056 -4.0557004643559935E-08
vn -0.37298816442489624 -0.92783612012863056 -4.0557004643559935E-08
vn -0.6003709435462952 -0.79972171783447184 -3.495694622657197E-08
vn -0.91982215642929072 0.39233577251434288 1.7149541120531353E-08
vn -0.91982215642929072 0.39233577251434288 1.7149541120531353E-08
vn -0.74886417388916016 0.66272348165512032 2.8968563103859424E-08
vn -0.74886417388916016 0.66272348165512032 2.8968563103859424E-08
vn -0.74886417388916016 0.66272348165512032 2.8968563103859424E-08
vn -0.91982215642929072 0.39233577251434288 1.7149541120531353E-08
vn -0.99001544713974 0.14095903933048234 6.161515242464333E-09
vn -0.99001544713974 0.14095903933048234 6.161515242464333E-09
vn -0.91982215642929072 0.39233577251434288 1.7149541120531353E-08
vn -0.91982215642929072 0.39233577251434288 1.7149541120531353E-08
vn -0.91982215642929072 0.39233577251434288 1.7149541120531353E-08
vn -0.99001544713974 0.14095903933048234 6.161515242464333E-09
vn 0.32383865118026732 -0.94611233472824 -4.1355883162452756E-08
vn 0.32383865118026732 -0.94611233472824 -4.1355883162452756E-08
vn 0.16414478421211242 -0.9864363074302664 -4.311850010374485E-08
vn 0.16414478421211242 -0.9864363074302664 -4.311850010374485E-08
vn 0.16414478421211242 -0.9864363074302664 -4.311850010374485E-08
vn 0.32383865118026732 -0.94611233472824 -4.1355883162452756E-08
vn 0.95665365457534784 -0.29122802615165684 -1.2729981235803933E-08
vn 0.95665365457534784 -0.29122802615165684 -1.2729981235803933E-08
vn 0.98910409212112432 -0.14721763134002672 -6.43508699105233E-09
vn 0.98910409212112432 -0.14721763134002672 -6.43508699105233E-09
vn 0.98910409212112432 -0.14721763134002672 -6.43508699105233E-09
vn 0.95665365457534784 -0.29122802615165684 -1.2729981235803933E-08
vn 0 0.99999999999999904 4.371138784264872E-08
vn 0 0.99999999999999904 4.371138784264872E-08
vn 0 0.99999999999999904 4.371138784264872E-08
vn 0 0.99999999999999904 4.371138784264872E-08
vn 0 0.99999999999999904 4.371138784264872E-08
vn 0 0.99999999999999904 4.371138784264872E-08
vn -1 0 0
vn -1 0 0
vn -1 0 0
vn -1 0 0
vn -1 0 0
vn -1 0 0
vn 0 -4.371138784264872E-08 0.99999999999999904
vn 0 -4.371138784264872E-08 0.99999999999999904
vn 0 -4.371138784264872E-08 0.99999999999999904
vn 0 -4.371138784264872E-08 0.99999999999999904
vn 0 -4.371138784264872E-08 0.99999999999999904
vn 0 -4.371138784264872E-08 0.99999999999999904
vn 1 0 0
vn 1 0 0
vn 1 0 0
vn 1 0 0
vn 1 0 0
vn 1 0 0
vn 0 4.371138784264872E-08 -0.99999999999999904
vn 0 4.371138784264872E-08 -0.99999999999999904
vn 0 4.371138784264872E-08 -0.99999999999999904
vn 0 4.371138784264872E-08 -0.99999999999999904
vn 0 4.371138784264872E-08 -0.99999999999999904
vn 0 4.371138784264872E-08 -0.99999999999999904
vn 0 -4.371138784264872E-08 0.99999999999999904
vn 0 -4.371138784264872E-08 0.99999999999999904
vn 0 -4.371138784264872E-08 0.99999999999999904
vn 0 -4.371138784264872E-08 0.99999999999999904
vn 0 -4.371138784264872E-08 0.99999999999999904
vn 0 -4.371138784264872E-08 0.99999999999999904
vn 0 -4.371138784264872E-08 0.99999999999999904
vn 0 -4.371138784264872E-08 0.99999999999999904
vn 0 -4.371138784264872E-08 0.99999999999999904
vn 0 4.371138784264872E-08 -0.99999999999999904
vn 0 4.371138784264872E-08 -0.99999999999999904
vn 0 4.371138784264872E-08 -0.99999999999999904
vn 0 4.371138784264872E-08 -0.99999999999999904
vn 0 4.371138784264872E-08 -0.99999999999999904
vn 0 4.371138784264872E-08 -0.99999999999999904
vn 0 4.371138784264872E-08 -0.99999999999999904
vn 0 4.371138784264872E-08 -0.99999999999999904
vn 0 4.371138784264872E-08 -0.99999999999999904
vn 0 4.371138784264872E-08 -0.99999999999999904
vn 0 4.371138784264872E-08 -0.99999999999999904
vn 0 4.371138784264872E-08 -0.99999999999999904
vn 0 -4.371138784264872E-08 0.99999999999999904
vn 0 -4.371138784264872E-08 0.99999999999999904
vn 0 -4.371138784264872E-08 0.99999999999999904
# 132 vertex normals

vt 0.36257800459861752 0.99855673313140864 0
vt 0.25702795386314392 0.99855673313140864 0
vt 0.25702795386314392 0.93570059537887568 0
vt 0.36257800459861752 0.93570059537887568 0
vt 0.49889108538627624 0.80480712652206416 0
vt 0.49889108538627624 0.96492826938629152 0
vt 0.43603488802909848 0.96492826938629152 0
vt 0.43603488802909848 0.80480712652206416 0
vt 0.4348803460597992 0.82192546129226688 0
vt 0.4348803460597992 0.92747545242309568 0
vt 0.4273682534694672 0.9347755908966064 0
vt 0.31481564044952392 0.9347755908966064 0
vt 0.31261545419692992 0.93130952119827264 0
vt 0.42599698901176456 0.81824582815170288 0
vt 0.31396886706352232 0.78993350267410272 0
vt 0.31396886706352232 0.90248614549636848 0
vt 0.25111278891563416 0.90248614549636848 0
vt 0.25111278891563416 0.78993350267410272 0
vt 0.32256957888603212 0.78408348560333248 0
vt 0.42811962962150576 0.78408348560333248 0
vt 0.43179920315742496 0.7929668426513672 0
vt 0.31873548030853272 0.90634834766387936 0
vt 0.31526944041252136 0.90414810180664064 0
vt 0.31526944041252136 0.79159545898437504 0
vt 0.36747413873672488 0.93570059537887568 0
vt 0.36747416853904728 0.99855673313140864 0
vt 0.37026697397232056 0.93570059537887568 0
vt 0.37026697397232056 0.99855673313140864 0
vt 0.49889108538627624 0.96982437372207648 0
vt 0.43603488802909848 0.96982437372207648 0
vt 0.49889108538627624 0.97261720895767216 0
vt 0.43603488802909848 0.97261720895767216 0
vt 0.25111278891563416 0.99855673313140864 0
vt 0.25111278891563416 0.93570059537887568 0
vt 0.25111278891563416 0.78408348560333248 0
vt 0.31396886706352232 0.78408348560333248 0
vt 0.25111278891563416 0.92483979463577264 0
vt 0.25111278891563416 0.92137372493743904 0
vt 0.31396886706352232 0.92137372493743904 0
vt 0.31396886706352232 0.924839735031128 0
vt 0.43603488802909848 0.78811979293823248 0
vt 0.49889108538627624 0.78811979293823248 0
vt 0.29592809081077576 0.9347755908966064 0
vt 0.29592809081077576 0.93130952119827264 0
vt 0.31873548030853272 0.9230356216430664 0
vt 0.31526944041252136 0.9230356216430664 0
vt 0.42985007166862488 0.81522494554519648 0
vt 0.43429180979728696 0.81706482172012336 0
vt 0.43261507153511048 0.81483131647109984 0
vt 0.43298026919364928 0.7846719622612 0
vt 0.43482008576393128 0.78911364078521728 0
vt 0.43521377444267272 0.78634870052337648 0
vt 0.31697311997413636 0.7859990000724792 0
vt 0.43296477198600768 0.93307191133499152 0
# 54 texture coords

g hypercasual_prop012
usemtl Atlas
s 1
f 17/3/1 6/4/2 9/1/3
f 9/1/4 15/2/5 17/3/6
f 4/7/7 1/8/8 20/5/9
f 20/5/10 11/6/11 4/7/12
f 18/11/13 19/12/14 1/13/15
f 1/13/16 4/14/17 6/9/18
f 18/11/19 1/13/20 6/9/21
f 18/11/22 6/9/23 17/10/24
f 19/17/25 18/18/26 14/15/27
f 14/15/28 2/16/29 19/17/30
f 15/19/31 9/20/32 11/21/33
f 15/19/34 11/21/35 20/22/36
f 15/19/37 20/22/38 2/23/39
f 15/19/40 2/23/41 14/24/42
f 7/25/43 10/26/44 9/1/45
f 9/1/46 6/4/47 7/25/48
f 3/27/49 8/28/50 10/26/51
f 10/26/52 7/25/53 3/27/54
f 12/29/55 5/30/56 4/7/57
f 4/7/58 11/6/59 12/29/60
f 8/31/61 3/32/62 5/30/63
f 5/30/64 12/29/65 8/31/66
f 13/33/67 16/34/68 17/3/69
f 17/3/70 15/2/71 13/33/72
f 16/35/73 13/36/74 14/15/75
f 14/15/76 18/18/77 16/35/78
f 24/39/79 21/40/80 22/37/81
f 22/37/82 23/38/83 24/39/84
f 22/41/85 21/42/86 20/5/87
f 20/5/88 1/8/89 22/41/90
f 23/43/91 22/44/92 1/13/93
f 1/13/94 19/12/95 23/43/96
f 24/39/97 23/38/98 19/17/99
f 19/17/100 2/16/101 24/39/102
f 21/45/103 24/46/104 2/23/105
f 2/23/106 20/22/107 21/45/108
f 6/9/109 4/14/110 5/47/111
f 5/47/112 7/48/113 6/9/114
f 5/47/115 3/49/116 7/48/117
f 11/21/118 9/20/119 10/50/120
f 10/50/121 12/51/122 11/21/123
f 10/50/124 8/52/125 12/51/126
f 14/24/127 13/53/128 15/19/129
f 17/10/130 16/54/131 18/11/132
#44 polygons

