# This file uses centimeters as units for non-parametric coordinates.

mtllib estante_mediano.mtl
g default
v 1.945152 3.649720 -2.170130
v 1.945152 3.649720 -2.750744
v 1.945152 4.055245 -2.170130
v 1.945152 4.055245 -2.750744
v 1.945152 4.055245 2.379394
v 1.945152 3.649720 2.379394
v 1.945152 3.649720 2.750744
v 1.945152 4.055245 2.750744
v 1.945152 -4.055245 2.750744
v 1.945152 -4.055245 2.379394
v 1.945152 -3.690273 2.379394
v 1.945152 -3.690273 2.750744
v 1.945152 -4.055245 -2.170130
v 1.945152 -3.690273 -2.170130
v 1.945152 -3.690273 -2.750744
v 1.945152 -4.055245 -2.750744
v 1.841328 3.649720 -2.170130
v 1.841328 3.649720 -2.750744
v 1.841328 4.055245 -2.170130
v 1.841328 4.055245 -2.750744
v 1.841328 4.055245 2.379394
v 1.841328 3.649720 2.379394
v 1.841328 3.649720 2.750744
v 1.841328 4.055245 2.750744
v 1.841328 -4.055245 2.750744
v 1.841328 -4.055245 2.379394
v 1.841328 -3.690273 2.379394
v 1.841328 -3.690273 2.750744
v 1.841328 -4.055245 -2.170130
v 1.841328 -3.690273 -2.170130
v 1.841328 -3.690273 -2.750744
v 1.841328 -4.055245 -2.750744
v -1.549641 -2.130450 -2.179235
v -1.549641 -2.130450 2.388498
v -1.549641 -2.314099 -2.179235
v -1.549641 -2.314099 2.388498
v 1.715944 -2.314099 -2.179235
v 1.715944 -2.314099 2.388498
v 1.715944 -2.130450 -2.179235
v 1.715944 -2.130450 2.388498
v -1.945152 4.055245 2.750744
v -1.945152 4.055245 -2.750744
v -1.945152 -4.055245 2.750744
v -1.945152 -4.055245 -2.750744
v -1.945152 -4.055245 -2.170130
v -1.945152 4.055245 -2.170130
v -1.945152 3.649720 2.750744
v -1.945152 3.649720 -2.170130
v -1.945152 3.649720 -2.750744
v -1.945152 -3.690273 -2.750744
v -1.945152 -3.690273 -2.170130
v -1.945152 -3.690273 2.750744
v -1.945152 4.055245 2.379394
v -1.945152 3.649720 2.379394
v -1.945152 -3.690273 2.379394
v -1.945152 -4.055245 2.379394
v 1.841328 4.055245 2.750744
v 1.841328 4.055245 2.379394
v 1.841328 4.055245 -2.170130
v 1.841328 4.055245 -2.750744
v 1.841328 3.649720 -2.750744
v 1.841328 -3.690273 -2.750744
v 1.841328 -4.055245 -2.750744
v 1.841328 -4.055245 -2.170130
v 1.841328 -4.055245 2.379394
v 1.841328 -4.055245 2.750744
v 1.841328 -3.690273 2.750744
v 1.841328 3.649720 2.750744
v -1.549641 3.649720 -2.170130
v -1.549641 -3.690273 -2.170130
v -1.549641 3.649720 2.379394
v -1.549641 -3.690273 2.379394
v 1.841328 -3.690273 -2.170130
v 1.841328 -3.690273 2.379394
v 1.841328 3.649720 2.379394
v 1.841328 3.649720 -2.170130
v 1.945152 3.649720 2.379394
v 1.841328 3.649720 2.379394
v 1.841328 3.649720 -2.170130
v 1.945152 3.649720 -2.170130
v 1.945152 -3.690273 2.379394
v 1.841328 -3.690273 2.379394
v 1.945152 -3.690273 -2.170130
v 1.841328 -3.690273 -2.170130
v -1.549641 -0.662451 -2.179235
v -1.549641 -0.662451 2.388498
v -1.549641 -0.846100 -2.179235
v -1.549641 -0.846100 2.388498
v 1.715944 -0.846100 -2.179235
v 1.715944 -0.846100 2.388498
v 1.715944 -0.662451 -2.179235
v 1.715944 -0.662451 2.388498
v -1.549641 0.805548 -2.179235
v -1.549641 0.805548 2.388498
v -1.549641 0.621898 -2.179235
v -1.549641 0.621898 2.388498
v 1.715944 0.621898 -2.179235
v 1.715944 0.621898 2.388498
v 1.715944 0.805548 -2.179235
v 1.715944 0.805548 2.388498
v -1.549641 2.273546 -2.179235
v -1.549641 2.273546 2.388498
v -1.549641 2.089897 -2.179235
v -1.549641 2.089897 2.388498
v 1.715944 2.089897 -2.179235
v 1.715944 2.089897 2.388498
v 1.715944 2.273546 -2.179235
v 1.715944 2.273546 2.388498
vt 0.625000 0.237500
vt 0.600000 0.237500
vt 0.600000 0.011250
vt 0.625000 0.011250
vt 0.600000 0.250000
vt 0.625000 0.250000
vt 0.391875 0.250000
vt 0.391875 0.237500
vt 0.375000 0.237500
vt 0.375000 0.250000
vt 0.375000 0.011250
vt 0.391875 0.011250
vt 0.375000 0.000000
vt 0.391875 0.000000
vt 0.600000 0.000000
vt 0.625000 0.000000
vt 0.625000 0.237500
vt 0.625000 0.011250
vt 0.600000 0.011250
vt 0.600000 0.237500
vt 0.600000 0.250000
vt 0.625000 0.250000
vt 0.391875 0.237500
vt 0.391875 0.250000
vt 0.375000 0.237500
vt 0.375000 0.250000
vt 0.391875 0.011250
vt 0.375000 0.011250
vt 0.375000 0.000000
vt 0.391875 0.000000
vt 0.600000 0.000000
vt 0.625000 0.000000
vt 0.600000 1.000000
vt 0.600000 1.000000
vt 0.625000 1.000000
vt 0.625000 1.000000
vt 0.391875 1.000000
vt 0.391875 1.000000
vt 0.375000 1.000000
vt 0.375000 1.000000
vt 0.375000 0.000000
vt 0.375000 0.250000
vt 0.625000 0.250000
vt 0.625000 0.000000
vt 0.375000 0.500000
vt 0.625000 0.500000
vt 0.375000 0.750000
vt 0.625000 0.750000
vt 0.375000 1.000000
vt 0.625000 1.000000
vt 0.875000 0.250000
vt 0.875000 0.000000
vt 0.125000 0.000000
vt 0.125000 0.250000
vt 0.600000 0.512500
vt 0.625000 0.512500
vt 0.625000 0.738750
vt 0.600000 0.738750
vt 0.391875 0.512500
vt 0.391875 0.738750
vt 0.600000 0.500000
vt 0.391875 0.500000
vt 0.625000 0.500000
vt 0.375000 0.512500
vt 0.375000 0.738750
vt 0.375000 0.500000
vt 0.600000 0.750000
vt 0.625000 0.750000
vt 0.391875 0.750000
vt 0.375000 0.750000
vt 0.600000 0.258493
vt 0.625000 0.258493
vt 0.625000 0.991508
vt 0.600000 0.991507
vt 0.875000 0.011250
vt 0.875000 0.237500
vt 0.633493 0.237500
vt 0.633492 0.011250
vt 0.366507 0.011250
vt 0.366507 0.237500
vt 0.125000 0.237500
vt 0.125000 0.011250
vt 0.391875 0.991507
vt 0.391875 0.258493
vt 0.633491 0.250000
vt 0.875000 0.250000
vt 0.366507 0.250000
vt 0.125000 0.250000
vt 0.375000 0.991507
vt 0.375000 0.258492
vt 0.633493 0.000000
vt 0.875000 0.000000
vt 0.125000 0.000000
vt 0.366507 -0.000000
vt 0.600000 0.011250
vt 0.600000 0.237500
vt 0.391875 0.237500
vt 0.391875 0.011250
vt 0.391875 0.011250
vt 0.600000 0.011250
vt 0.391875 0.237500
vt 0.600000 0.237500
vt 0.391875 0.237500
vt 0.600000 0.237500
vt 0.600000 0.237500
vt 0.391875 0.237500
vt 0.391875 0.011250
vt 0.391875 0.011250
vt 0.600000 0.011250
vt 0.600000 0.011250
vt 0.375000 0.000000
vt 0.375000 0.250000
vt 0.625000 0.250000
vt 0.625000 0.000000
vt 0.375000 0.500000
vt 0.625000 0.500000
vt 0.375000 0.750000
vt 0.625000 0.750000
vt 0.375000 1.000000
vt 0.625000 1.000000
vt 0.875000 0.250000
vt 0.875000 0.000000
vt 0.125000 0.000000
vt 0.125000 0.250000
vt 0.375000 0.000000
vt 0.375000 0.250000
vt 0.625000 0.250000
vt 0.625000 0.000000
vt 0.375000 0.500000
vt 0.625000 0.500000
vt 0.375000 0.750000
vt 0.625000 0.750000
vt 0.375000 1.000000
vt 0.625000 1.000000
vt 0.875000 0.250000
vt 0.875000 0.000000
vt 0.125000 0.000000
vt 0.125000 0.250000
vt 0.375000 0.000000
vt 0.375000 0.250000
vt 0.625000 0.250000
vt 0.625000 0.000000
vt 0.375000 0.500000
vt 0.625000 0.500000
vt 0.375000 0.750000
vt 0.625000 0.750000
vt 0.375000 1.000000
vt 0.625000 1.000000
vt 0.875000 0.250000
vt 0.875000 0.000000
vt 0.125000 0.000000
vt 0.125000 0.250000
vn 1.000000 0.000000 0.000000
vn 1.000000 0.000000 0.000000
vn 1.000000 0.000000 0.000000
vn 1.000000 0.000000 0.000000
vn 1.000000 0.000000 0.000000
vn 1.000000 0.000000 0.000000
vn 1.000000 0.000000 0.000000
vn 1.000000 0.000000 0.000000
vn 1.000000 0.000000 0.000000
vn 1.000000 0.000000 0.000000
vn 1.000000 0.000000 0.000000
vn 1.000000 0.000000 0.000000
vn 1.000000 0.000000 0.000000
vn 1.000000 0.000000 0.000000
vn 1.000000 0.000000 0.000000
vn 1.000000 0.000000 0.000000
vn 1.000000 0.000000 0.000000
vn 1.000000 0.000000 0.000000
vn 1.000000 0.000000 0.000000
vn 1.000000 0.000000 0.000000
vn 1.000000 0.000000 0.000000
vn 1.000000 0.000000 0.000000
vn 1.000000 0.000000 0.000000
vn 1.000000 0.000000 0.000000
vn 1.000000 0.000000 0.000000
vn 1.000000 0.000000 0.000000
vn 1.000000 0.000000 0.000000
vn 1.000000 0.000000 0.000000
vn 1.000000 0.000000 0.000000
vn 1.000000 0.000000 0.000000
vn 1.000000 0.000000 0.000000
vn 1.000000 0.000000 0.000000
vn -1.000000 0.000000 -0.000000
vn -1.000000 0.000000 -0.000000
vn -1.000000 0.000000 -0.000000
vn -1.000000 0.000000 -0.000000
vn -1.000000 0.000000 -0.000000
vn -1.000000 0.000000 -0.000000
vn -1.000000 0.000000 -0.000000
vn -1.000000 0.000000 -0.000000
vn -1.000000 0.000000 -0.000000
vn -1.000000 0.000000 -0.000000
vn -1.000000 0.000000 -0.000000
vn -1.000000 0.000000 -0.000000
vn -1.000000 0.000000 -0.000000
vn -1.000000 0.000000 -0.000000
vn -1.000000 0.000000 -0.000000
vn -1.000000 0.000000 -0.000000
vn -1.000000 0.000000 -0.000000
vn -1.000000 0.000000 -0.000000
vn -1.000000 0.000000 -0.000000
vn -1.000000 0.000000 -0.000000
vn -1.000000 0.000000 -0.000000
vn -1.000000 0.000000 -0.000000
vn -1.000000 0.000000 -0.000000
vn -1.000000 0.000000 -0.000000
vn -1.000000 0.000000 -0.000000
vn -1.000000 0.000000 -0.000000
vn -1.000000 0.000000 -0.000000
vn -1.000000 0.000000 -0.000000
vn -1.000000 0.000000 -0.000000
vn -1.000000 0.000000 -0.000000
vn -1.000000 0.000000 -0.000000
vn -1.000000 0.000000 -0.000000
vn 0.000000 1.000000 0.000000
vn 0.000000 1.000000 0.000000
vn 0.000000 1.000000 0.000000
vn 0.000000 1.000000 0.000000
vn 0.000000 1.000000 0.000000
vn 0.000000 1.000000 0.000000
vn 0.000000 1.000000 0.000000
vn 0.000000 1.000000 0.000000
vn 0.000000 1.000000 0.000000
vn 0.000000 1.000000 0.000000
vn 0.000000 1.000000 0.000000
vn 0.000000 1.000000 0.000000
vn 0.000000 0.000000 -1.000000
vn 0.000000 0.000000 -1.000000
vn 0.000000 0.000000 -1.000000
vn 0.000000 0.000000 -1.000000
vn 0.000000 0.000000 -1.000000
vn 0.000000 0.000000 -1.000000
vn 0.000000 0.000000 -1.000000
vn 0.000000 0.000000 -1.000000
vn 0.000000 0.000000 -1.000000
vn 0.000000 0.000000 -1.000000
vn 0.000000 0.000000 -1.000000
vn 0.000000 0.000000 -1.000000
vn 0.000000 -1.000000 0.000000
vn 0.000000 -1.000000 0.000000
vn 0.000000 -1.000000 0.000000
vn 0.000000 -1.000000 0.000000
vn 0.000000 -1.000000 0.000000
vn 0.000000 -1.000000 0.000000
vn 0.000000 -1.000000 0.000000
vn 0.000000 -1.000000 0.000000
vn 0.000000 -1.000000 0.000000
vn 0.000000 -1.000000 0.000000
vn 0.000000 -1.000000 0.000000
vn 0.000000 -1.000000 0.000000
vn -0.000000 0.000000 1.000000
vn -0.000000 0.000000 1.000000
vn -0.000000 0.000000 1.000000
vn -0.000000 0.000000 1.000000
vn -0.000000 0.000000 1.000000
vn -0.000000 0.000000 1.000000
vn -0.000000 0.000000 1.000000
vn -0.000000 0.000000 1.000000
vn -0.000000 0.000000 1.000000
vn -0.000000 0.000000 1.000000
vn -0.000000 0.000000 1.000000
vn -0.000000 0.000000 1.000000
vn 0.000000 -1.000000 0.000000
vn 0.000000 -1.000000 0.000000
vn 0.000000 -1.000000 0.000000
vn 0.000000 -1.000000 0.000000
vn 0.000000 0.000000 -1.000000
vn 0.000000 0.000000 -1.000000
vn 0.000000 0.000000 -1.000000
vn 0.000000 0.000000 -1.000000
vn 0.000000 1.000000 0.000000
vn 0.000000 1.000000 0.000000
vn 0.000000 1.000000 0.000000
vn 0.000000 1.000000 0.000000
vn -0.000000 0.000000 1.000000
vn -0.000000 0.000000 1.000000
vn -0.000000 0.000000 1.000000
vn -0.000000 0.000000 1.000000
vn -1.000000 0.000000 -0.000000
vn -1.000000 0.000000 -0.000000
vn -1.000000 0.000000 -0.000000
vn -1.000000 0.000000 -0.000000
vn 0.000000 -1.000000 0.000000
vn 0.000000 -1.000000 0.000000
vn 0.000000 -1.000000 0.000000
vn 0.000000 -1.000000 0.000000
vn 1.000000 0.000000 0.000000
vn 1.000000 0.000000 0.000000
vn 1.000000 0.000000 0.000000
vn 1.000000 0.000000 0.000000
vn 0.000000 1.000000 0.000000
vn 0.000000 1.000000 0.000000
vn 0.000000 1.000000 0.000000
vn 0.000000 1.000000 0.000000
vn -0.000000 0.000000 1.000000
vn -0.000000 0.000000 1.000000
vn -0.000000 0.000000 1.000000
vn -0.000000 0.000000 1.000000
vn 0.000000 0.000000 -1.000000
vn 0.000000 0.000000 -1.000000
vn 0.000000 0.000000 -1.000000
vn 0.000000 0.000000 -1.000000
vn -1.000000 0.000000 -0.000000
vn -1.000000 0.000000 -0.000000
vn -1.000000 0.000000 -0.000000
vn -1.000000 0.000000 -0.000000
vn -1.000000 0.000000 -0.000000
vn -1.000000 0.000000 -0.000000
vn -1.000000 0.000000 -0.000000
vn -1.000000 0.000000 -0.000000
vn -1.000000 0.000000 -0.000000
vn -1.000000 0.000000 -0.000000
vn -1.000000 0.000000 -0.000000
vn -1.000000 0.000000 -0.000000
vn -1.000000 0.000000 -0.000000
vn -1.000000 0.000000 -0.000000
vn -1.000000 0.000000 -0.000000
vn -1.000000 0.000000 -0.000000
vn -1.000000 0.000000 -0.000000
vn -1.000000 0.000000 -0.000000
vn -1.000000 0.000000 -0.000000
vn -1.000000 0.000000 -0.000000
vn -1.000000 0.000000 -0.000000
vn -1.000000 0.000000 -0.000000
vn -1.000000 0.000000 -0.000000
vn -1.000000 0.000000 -0.000000
vn -1.000000 0.000000 -0.000000
vn -1.000000 0.000000 -0.000000
vn -1.000000 0.000000 -0.000000
vn -1.000000 0.000000 -0.000000
vn -1.000000 0.000000 -0.000000
vn -1.000000 0.000000 -0.000000
vn -1.000000 0.000000 -0.000000
vn -1.000000 0.000000 -0.000000
vn -1.000000 0.000000 -0.000000
vn -1.000000 0.000000 -0.000000
vn -1.000000 0.000000 -0.000000
vn -1.000000 0.000000 -0.000000
vn 0.000000 1.000000 0.000000
vn 0.000000 1.000000 0.000000
vn 0.000000 1.000000 0.000000
vn 0.000000 1.000000 0.000000
vn 0.000000 -1.000000 0.000000
vn 0.000000 -1.000000 0.000000
vn 0.000000 -1.000000 0.000000
vn 0.000000 -1.000000 0.000000
vn 0.000000 0.000000 -1.000000
vn 0.000000 0.000000 -1.000000
vn 0.000000 0.000000 -1.000000
vn 0.000000 0.000000 -1.000000
vn -0.000000 0.000000 1.000000
vn -0.000000 0.000000 1.000000
vn -0.000000 0.000000 1.000000
vn -0.000000 0.000000 1.000000
vn 0.000000 -1.000000 0.000000
vn 0.000000 -1.000000 0.000000
vn 0.000000 -1.000000 0.000000
vn 0.000000 -1.000000 0.000000
vn 0.000000 1.000000 0.000000
vn 0.000000 1.000000 0.000000
vn 0.000000 1.000000 0.000000
vn 0.000000 1.000000 0.000000
vn 0.000000 0.000000 -1.000000
vn 0.000000 0.000000 -1.000000
vn 0.000000 0.000000 -1.000000
vn 0.000000 0.000000 -1.000000
vn -0.000000 0.000000 1.000000
vn -0.000000 0.000000 1.000000
vn -0.000000 0.000000 1.000000
vn -0.000000 0.000000 1.000000
vn 0.000000 -1.000000 0.000000
vn 0.000000 -1.000000 0.000000
vn 0.000000 -1.000000 0.000000
vn 0.000000 -1.000000 0.000000
vn 0.000000 1.000000 0.000000
vn 0.000000 1.000000 0.000000
vn 0.000000 1.000000 0.000000
vn 0.000000 1.000000 0.000000
vn 0.000000 0.000000 -1.000000
vn 0.000000 0.000000 -1.000000
vn 0.000000 0.000000 -1.000000
vn 0.000000 0.000000 -1.000000
vn -0.000000 0.000000 1.000000
vn -0.000000 0.000000 1.000000
vn -0.000000 0.000000 1.000000
vn -0.000000 0.000000 1.000000
vn 1.000000 0.000000 0.000000
vn 1.000000 0.000000 0.000000
vn 1.000000 0.000000 0.000000
vn 1.000000 0.000000 0.000000
vn 0.000000 1.000000 0.000000
vn 0.000000 1.000000 0.000000
vn 0.000000 1.000000 0.000000
vn 0.000000 1.000000 0.000000
vn 0.000000 0.000000 -1.000000
vn 0.000000 0.000000 -1.000000
vn 0.000000 0.000000 -1.000000
vn 0.000000 0.000000 -1.000000
vn 0.000000 -1.000000 0.000000
vn 0.000000 -1.000000 0.000000
vn 0.000000 -1.000000 0.000000
vn 0.000000 -1.000000 0.000000
vn -0.000000 0.000000 1.000000
vn -0.000000 0.000000 1.000000
vn -0.000000 0.000000 1.000000
vn -0.000000 0.000000 1.000000
vn 0.000000 1.000000 0.000000
vn 0.000000 1.000000 0.000000
vn 0.000000 1.000000 0.000000
vn 0.000000 1.000000 0.000000
vn -0.000000 0.000000 1.000000
vn -0.000000 0.000000 1.000000
vn -0.000000 0.000000 1.000000
vn -0.000000 0.000000 1.000000
vn 0.000000 -1.000000 0.000000
vn 0.000000 -1.000000 0.000000
vn 0.000000 -1.000000 0.000000
vn 0.000000 -1.000000 0.000000
vn 0.000000 0.000000 -1.000000
vn 0.000000 0.000000 -1.000000
vn 0.000000 0.000000 -1.000000
vn 0.000000 0.000000 -1.000000
vn 1.000000 0.000000 0.000000
vn 1.000000 0.000000 0.000000
vn 1.000000 0.000000 0.000000
vn 1.000000 0.000000 0.000000
vn -1.000000 0.000000 -0.000000
vn -1.000000 0.000000 -0.000000
vn -1.000000 0.000000 -0.000000
vn -1.000000 0.000000 -0.000000
vn -1.000000 0.000000 -0.000000
vn -1.000000 0.000000 -0.000000
vn -1.000000 0.000000 -0.000000
vn -1.000000 0.000000 -0.000000
vn 0.000000 -1.000000 0.000000
vn 0.000000 -1.000000 0.000000
vn 0.000000 -1.000000 0.000000
vn 0.000000 -1.000000 0.000000
vn 1.000000 0.000000 0.000000
vn 1.000000 0.000000 0.000000
vn 1.000000 0.000000 0.000000
vn 1.000000 0.000000 0.000000
vn 0.000000 1.000000 0.000000
vn 0.000000 1.000000 0.000000
vn 0.000000 1.000000 0.000000
vn 0.000000 1.000000 0.000000
vn -0.000000 0.000000 1.000000
vn -0.000000 0.000000 1.000000
vn -0.000000 0.000000 1.000000
vn -0.000000 0.000000 1.000000
vn 0.000000 0.000000 -1.000000
vn 0.000000 0.000000 -1.000000
vn 0.000000 0.000000 -1.000000
vn 0.000000 0.000000 -1.000000
vn -1.000000 0.000000 -0.000000
vn -1.000000 0.000000 -0.000000
vn -1.000000 0.000000 -0.000000
vn -1.000000 0.000000 -0.000000
vn -0.000000 -1.000000 0.000000
vn -0.000000 -1.000000 0.000000
vn -0.000000 -1.000000 0.000000
vn -0.000000 -1.000000 0.000000
vn 1.000000 0.000000 0.000000
vn 1.000000 0.000000 0.000000
vn 1.000000 0.000000 0.000000
vn 1.000000 0.000000 0.000000
vn 0.000000 1.000000 -0.000000
vn 0.000000 1.000000 -0.000000
vn 0.000000 1.000000 -0.000000
vn 0.000000 1.000000 -0.000000
vn -0.000000 0.000000 1.000000
vn -0.000000 0.000000 1.000000
vn -0.000000 0.000000 1.000000
vn -0.000000 0.000000 1.000000
vn 0.000000 -0.000000 -1.000000
vn 0.000000 -0.000000 -1.000000
vn 0.000000 -0.000000 -1.000000
vn 0.000000 -0.000000 -1.000000
vn -1.000000 0.000000 -0.000000
vn -1.000000 0.000000 -0.000000
vn -1.000000 0.000000 -0.000000
vn -1.000000 0.000000 -0.000000
vn -0.000000 -1.000000 0.000000
vn -0.000000 -1.000000 0.000000
vn -0.000000 -1.000000 0.000000
vn -0.000000 -1.000000 0.000000
vn 1.000000 0.000000 0.000000
vn 1.000000 0.000000 0.000000
vn 1.000000 0.000000 0.000000
vn 1.000000 0.000000 0.000000
vn 0.000000 1.000000 -0.000000
vn 0.000000 1.000000 -0.000000
vn 0.000000 1.000000 -0.000000
vn 0.000000 1.000000 -0.000000
vn -0.000000 0.000000 1.000000
vn -0.000000 0.000000 1.000000
vn -0.000000 0.000000 1.000000
vn -0.000000 0.000000 1.000000
vn 0.000000 -0.000000 -1.000000
vn 0.000000 -0.000000 -1.000000
vn 0.000000 -0.000000 -1.000000
vn 0.000000 -0.000000 -1.000000
s off
g polySurface910
usemtl frameSG
f 2/1/1 1/2/2 14/3/3 15/4/4
f 3/5/5 1/2/6 2/1/7 4/6/8
f 1/2/9 3/5/10 5/7/11 6/8/12
f 7/9/13 6/8/14 5/7/15 8/10/16
f 6/8/17 7/9/18 12/11/19 11/12/20
f 9/13/21 10/14/22 11/12/23 12/11/24
f 13/15/25 14/3/26 11/12/27 10/14/28
f 15/4/29 14/3/30 13/15/31 16/16/32
f 18/17/33 31/18/34 30/19/35 17/20/36
f 19/21/37 20/22/38 18/17/39 17/20/40
f 17/20/41 22/23/42 21/24/43 19/21/44
f 23/25/45 24/26/46 21/24/47 22/23/48
f 22/23/49 27/27/50 28/28/51 23/25/52
f 25/29/53 28/28/54 27/27/55 26/30/56
f 29/31/57 26/30/58 27/27/59 30/19/60
f 31/18/61 32/32/62 29/31/63 30/19/64
f 5/7/65 21/24/66 24/26/67 8/10/68
f 3/5/69 19/21/70 21/24/71 5/7/72
f 4/6/73 20/22/74 19/21/75 3/5/76
f 2/1/77 18/17/78 20/22/79 4/6/80
f 15/4/81 31/18/82 18/17/83 2/1/84
f 16/16/85 32/32/86 31/18/87 15/4/88
f 13/33/89 29/34/90 32/35/91 16/36/92
f 10/37/93 26/38/94 29/34/95 13/33/96
f 9/39/97 25/40/98 26/38/99 10/37/100
f 12/11/101 28/28/102 25/29/103 9/13/104
f 7/9/105 23/25/106 28/28/107 12/11/108
f 8/10/109 24/26/110 23/25/111 7/9/112
f 6/8/113 22/23/114 17/20/115 1/2/116
f 11/12/117 27/27/118 22/23/119 6/8/120
f 14/3/121 30/19/122 27/27/123 11/12/124
f 1/2/125 17/20/126 30/19/127 14/3/128
usemtl ceilingSG
f 33/41/129 35/42/130 36/43/131 34/44/132
f 35/42/133 37/45/134 38/46/135 36/43/136
f 37/45/137 39/47/138 40/48/139 38/46/140
f 39/47/141 33/49/142 34/50/143 40/48/144
f 34/44/145 36/43/146 38/51/147 40/52/148
f 39/53/149 37/54/150 35/42/151 33/41/152
usemtl bodySG
f 48/55/153 49/56/154 50/57/155 51/58/156
f 54/59/157 48/55/158 51/58/159 55/60/160
f 46/61/161 48/55/162 54/59/163 53/62/164
f 49/56/165 48/55/166 46/61/167 42/63/168
f 47/64/169 54/59/170 55/60/171 52/65/172
f 53/62/173 54/59/174 47/64/175 41/66/176
f 45/67/177 51/58/178 50/57/179 44/68/180
f 51/58/181 45/67/182 56/69/183 55/60/184
f 52/65/185 55/60/186 56/69/187 43/70/188
f 46/61/189 59/71/190 60/72/191 42/63/192
f 63/73/193 64/74/194 45/67/195 44/68/196
f 50/75/197 49/76/198 61/77/199 62/78/200
f 67/79/201 68/80/202 47/81/203 52/82/204
f 45/67/205 64/74/206 65/83/207 56/69/208
f 58/84/209 59/71/210 46/61/211 53/62/212
f 60/85/213 61/77/214 49/76/215 42/86/216
f 47/81/217 68/80/218 57/87/219 41/88/220
f 56/69/221 65/83/222 66/89/223 43/70/224
f 57/90/225 58/84/226 53/62/227 41/66/228
f 62/78/229 63/91/230 44/92/231 50/75/232
f 43/93/233 66/94/234 67/79/235 52/82/236
f 70/95/237 69/96/238 71/97/239 72/98/240
f 72/98/241 74/99/242 73/100/243 70/95/244
f 71/97/245 75/101/246 74/99/247 72/98/248
f 76/102/249 75/101/250 71/97/251 69/96/252
f 73/100/253 76/102/254 69/96/255 70/95/256
usemtl glassSG
f 77/103/257 80/104/258 79/105/259 78/106/260
f 81/107/261 77/103/262 78/106/263 82/108/264
f 83/109/265 81/107/266 82/108/267 84/110/268
f 80/104/269 83/109/270 84/110/271 79/105/272
f 77/103/273 81/107/274 83/109/275 80/104/276
f 78/106/277 79/105/278 84/110/279 82/108/280
usemtl ceilingSG
f 85/111/281 87/112/282 88/113/283 86/114/284
f 87/112/285 89/115/286 90/116/287 88/113/288
f 89/115/289 91/117/290 92/118/291 90/116/292
f 91/117/293 85/119/294 86/120/295 92/118/296
f 86/114/297 88/113/298 90/121/299 92/122/300
f 91/123/301 89/124/302 87/112/303 85/111/304
f 93/125/305 95/126/306 96/127/307 94/128/308
f 95/126/309 97/129/310 98/130/311 96/127/312
f 97/129/313 99/131/314 100/132/315 98/130/316
f 99/131/317 93/133/318 94/134/319 100/132/320
f 94/128/321 96/127/322 98/135/323 100/136/324
f 99/137/325 97/138/326 95/126/327 93/125/328
f 101/139/329 103/140/330 104/141/331 102/142/332
f 103/140/333 105/143/334 106/144/335 104/141/336
f 105/143/337 107/145/338 108/146/339 106/144/340
f 107/145/341 101/147/342 102/148/343 108/146/344
f 102/142/345 104/141/346 106/149/347 108/150/348
f 107/151/349 105/152/350 103/140/351 101/139/352
