# This file uses centimeters as units for non-parametric coordinates.

mtllib puerta_izquierda.mtl
g default
v -0.170326 -4.547218 2.033948
v 0.170326 -4.547218 2.033948
v 0.170326 4.547217 2.033948
v -0.170330 4.547217 2.033948
v 0.170326 2.441664 2.033948
v -0.170330 2.441664 2.033948
v -0.170330 2.441664 1.627158
v -0.170326 -4.547218 1.627158
v 0.170326 -4.547218 1.627158
v 0.170326 2.441664 1.627158
v 0.170326 4.547217 1.627158
v -0.170330 4.547217 1.627158
v -0.170330 4.126107 1.627158
v -0.170330 4.126107 2.033948
v 0.170330 4.126107 2.033948
v 0.170330 4.126107 1.627158
v 0.170330 2.778553 1.627158
v 0.170330 2.778553 2.033948
v -0.170330 2.778553 2.033948
v -0.170330 2.778553 1.627158
v -0.170328 4.547218 -1.916804
v 0.170326 4.547218 -1.916804
v 0.170330 4.126107 -1.916804
v 0.170326 2.441664 -1.916804
v 0.170326 -4.547218 -1.916804
v -0.170326 -4.547218 -1.916804
v -0.170328 2.441664 -1.916804
v -0.170328 2.778553 -1.916804
v -0.170328 4.126107 -1.916804
v 0.170330 2.778553 -1.916804
v -0.170328 4.547218 -2.033948
v 0.170326 4.547218 -2.033948
v 0.170330 4.126107 -2.033948
v 0.170330 2.778553 -2.033948
v 0.170326 2.441664 -2.033948
v 0.170326 -4.547218 -2.033948
v -0.170326 -4.547218 -2.033948
v -0.170328 2.441664 -2.033948
v -0.170328 2.778553 -2.033948
v -0.170328 4.126107 -2.033948
v 0.162822 4.372348 1.618463
v 0.162822 -4.532908 1.618463
v -0.099422 -4.532908 1.618463
v -0.099424 4.372348 1.618463
v -0.099427 4.372348 -1.925500
v -0.099422 -4.532908 -1.925500
v 0.162822 -4.532908 -1.925500
v 0.162822 4.372348 -1.925500
vt 0.611109 0.211185
vt 0.611109 0.211185
vt 0.611109 0.178374
vt 0.611109 0.178374
vt 0.611109 0.170171
vt 0.611109 0.170171
vt 0.611109 0.000000
vt 0.611109 0.000000
vt 0.607584 0.000000
vt 0.607584 0.170171
vt 0.607584 0.000000
vt 0.607584 0.170171
vt 0.607584 0.211185
vt 0.607584 0.178374
vt 0.607584 0.221438
vt 0.607584 0.221438
vt 0.611109 0.221438
vt 0.611109 0.221438
vt 0.607584 0.178374
vt 0.607584 0.211185
vt 0.576872 0.221438
vt 0.576872 0.211185
vt 0.576872 0.221438
vt 0.576872 0.211185
vt 0.576872 0.178374
vt 0.576872 0.170171
vt 0.576872 0.000000
vt 0.576872 0.000000
vt 0.576872 0.170171
vt 0.576872 0.178374
vt 0.575857 0.221438
vt 0.575857 0.221438
vt 0.575857 0.211185
vt 0.575857 0.178374
vt 0.575857 0.170171
vt 0.575857 0.000000
vt 0.575857 0.000000
vt 0.575857 0.170171
vt 0.575857 0.178374
vt 0.575857 0.211185
vt 0.576872 0.170171
vt 0.576872 0.170171
vt 0.576872 0.000000
vt 0.576872 0.000000
vt 0.607584 0.170171
vt 0.607584 0.170171
vt 0.607584 0.000000
vt 0.607584 0.000000
vn -0.000000 0.000000 1.000000
vn -0.000000 -0.000000 1.000000
vn -0.000000 -0.000000 1.000000
vn -0.000000 0.000000 1.000000
vn -0.000000 -0.000000 1.000000
vn -0.000000 0.000000 1.000000
vn -0.000000 0.000000 1.000000
vn -0.000000 -0.000000 1.000000
vn -1.000000 -0.000000 -0.000000
vn -1.000000 -0.000000 -0.000000
vn -1.000000 -0.000000 -0.000000
vn -1.000000 -0.000000 -0.000000
vn 0.000000 -1.000000 0.000000
vn 0.000000 -1.000000 0.000000
vn 0.000000 -1.000000 0.000000
vn 0.000000 -1.000000 0.000000
vn 1.000000 -0.000000 0.000000
vn 1.000000 0.000000 0.000000
vn 1.000000 0.000000 0.000000
vn 1.000000 -0.000001 0.000000
vn 1.000000 0.000001 0.000000
vn 1.000000 -0.000001 0.000000
vn 1.000000 -0.000003 0.000000
vn 1.000000 0.000002 -0.000000
vn -0.000000 1.000000 0.000000
vn 0.000000 1.000000 0.000000
vn 0.000000 1.000000 0.000000
vn -0.000000 1.000000 0.000000
vn -1.000000 -0.000001 -0.000000
vn -1.000000 -0.000001 -0.000000
vn -1.000000 -0.000000 -0.000000
vn -1.000000 -0.000000 -0.000000
vn -1.000000 -0.000001 -0.000000
vn -1.000000 0.000000 -0.000000
vn -1.000000 0.000000 -0.000001
vn -1.000000 -0.000000 -0.000000
vn -0.000000 0.000000 1.000000
vn -0.000000 0.000000 1.000000
vn -0.000000 0.000000 1.000000
vn -0.000000 0.000000 1.000000
vn 1.000000 0.000003 -0.000000
vn 1.000000 0.000003 0.000000
vn 1.000000 0.000001 0.000000
vn 1.000000 0.000002 -0.000000
vn 1.000000 -0.000001 0.000000
vn 1.000000 -0.000000 0.000000
vn 1.000000 -0.000001 0.000000
vn 1.000000 -0.000003 0.000000
vn -0.000000 -0.000000 1.000000
vn -0.000000 -0.000000 1.000000
vn -0.000000 -0.000000 1.000000
vn -0.000000 -0.000000 1.000000
vn -1.000000 -0.000000 -0.000000
vn -1.000000 -0.000000 -0.000000
vn -1.000000 -0.000001 -0.000000
vn -1.000000 -0.000000 -0.000000
vn -1.000000 0.000000 0.000000
vn -1.000000 0.000000 -0.000000
vn -1.000000 0.000000 -0.000001
vn -1.000000 0.000000 0.000000
vn -0.000000 1.000000 0.000000
vn 0.000000 1.000000 0.000000
vn 0.000000 1.000000 0.000000
vn -0.000000 1.000000 0.000000
vn 1.000000 0.000003 -0.000000
vn 1.000000 0.000009 0.000000
vn 1.000000 0.000009 0.000000
vn 1.000000 0.000003 -0.000000
vn 1.000000 -0.000003 0.000000
vn 1.000000 0.000000 0.000000
vn 1.000000 0.000000 0.000000
vn 1.000000 0.000003 -0.000000
vn 1.000000 -0.000002 0.000000
vn 1.000000 -0.000011 0.000000
vn 1.000000 -0.000011 0.000000
vn 1.000000 -0.000003 0.000000
vn 1.000000 0.000000 0.000000
vn 1.000000 0.000000 0.000000
vn 1.000000 0.000000 0.000000
vn 1.000000 -0.000002 0.000000
vn 0.000000 -1.000000 0.000000
vn 0.000000 -1.000000 0.000000
vn 0.000000 -1.000000 0.000000
vn 0.000000 -1.000000 0.000000
vn -1.000000 -0.000000 -0.000000
vn -1.000000 -0.000000 0.000000
vn -1.000000 -0.000000 0.000000
vn -1.000000 -0.000000 -0.000000
vn -1.000000 0.000000 -0.000000
vn -1.000000 0.000000 0.000000
vn -1.000000 0.000000 0.000000
vn -1.000000 -0.000000 -0.000000
vn -1.000000 0.000000 -0.000000
vn -1.000000 0.000000 0.000000
vn -1.000000 0.000000 0.000000
vn -1.000000 0.000000 -0.000000
vn -0.000000 1.000000 0.000000
vn -0.000000 1.000000 0.000000
vn -0.000000 1.000000 0.000000
vn -0.000000 1.000000 0.000000
vn -1.000000 -0.000000 -0.000000
vn -1.000000 0.000000 -0.000001
vn -1.000000 0.000000 -0.000001
vn -1.000000 0.000000 -0.000000
vn 1.000000 0.000003 -0.000000
vn 1.000000 0.000003 -0.000000
vn 1.000000 0.000002 -0.000000
vn 1.000000 0.000003 -0.000000
vn 1.000000 -0.000003 0.000000
vn 1.000000 -0.000001 0.000000
vn 1.000000 -0.000002 0.000000
vn 1.000000 -0.000003 0.000000
vn -1.000000 -0.000000 -0.000000
vn -1.000000 -0.000000 -0.000000
vn -1.000000 -0.000000 -0.000000
vn -1.000000 0.000000 -0.000000
vn 0.000000 -1.000000 0.000000
vn 0.000000 -1.000000 0.000000
vn 0.000000 -1.000000 0.000000
vn 0.000000 -1.000000 0.000000
vn 0.000000 1.000000 0.000000
vn 0.000000 1.000000 0.000000
vn 0.000000 1.000000 0.000000
vn 0.000000 1.000000 0.000000
vn -0.000000 0.000000 1.000000
vn -0.000000 0.000000 1.000000
vn -0.000000 0.000000 1.000000
vn -0.000000 0.000000 1.000000
vn 0.000000 -1.000000 0.000000
vn 0.000000 -1.000000 0.000000
vn 0.000000 -1.000000 0.000000
vn 0.000000 -1.000000 0.000000
vn 0.000000 0.000000 -1.000000
vn 0.000000 0.000000 -1.000000
vn 0.000000 0.000000 -1.000000
vn 0.000000 0.000000 -1.000000
vn -0.000000 -0.000000 1.000000
vn -0.000000 -0.000000 1.000000
vn -0.000000 -0.000000 1.000000
vn -0.000000 -0.000000 1.000000
vn 0.000000 -0.000000 -1.000000
vn 0.000000 -0.000000 -1.000000
vn 0.000000 -0.000000 -1.000000
vn 0.000000 -0.000000 -1.000000
vn -0.000000 -0.000000 1.000000
vn -0.000000 -0.000000 1.000000
vn -0.000000 -0.000000 1.000000
vn -0.000000 -0.000000 1.000000
vn 0.000000 -0.000000 -1.000000
vn 0.000000 -0.000000 -1.000000
vn 0.000000 -0.000000 -1.000000
vn 0.000000 -0.000000 -1.000000
vn 1.000000 0.000000 0.000000
vn 1.000000 0.000000 0.000000
vn 1.000000 0.000000 0.000000
vn 1.000000 0.000000 0.000000
vn -1.000000 -0.000000 -0.000000
vn -1.000000 -0.000000 -0.000000
vn -1.000000 -0.000000 -0.000000
vn -1.000000 -0.000000 -0.000000
vn 0.000000 1.000000 0.000000
vn 0.000000 1.000000 0.000000
vn 0.000000 1.000000 0.000000
vn 0.000000 1.000000 0.000000
vn 0.000000 -1.000000 0.000000
vn 0.000000 -1.000000 0.000000
vn 0.000000 -1.000000 0.000000
vn 0.000000 -1.000000 0.000000
s off
g polySurface1227
usemtl frameSG
f 14/1/1 19/4/2 18/3/3 15/2/4
f 6/5/5 1/8/6 2/7/7 5/6/8
f 8/9/9 1/8/10 6/5/11 7/10/12
f 9/11/13 2/7/14 1/8/15 8/9/16
f 5/6/17 2/7/18 9/11/19 10/12/20
f 15/2/21 18/3/22 17/14/23 16/13/24
f 12/15/25 4/18/26 3/17/27 11/16/28
f 19/4/29 14/1/30 13/20/31 20/19/32
f 14/1/33 4/18/34 12/15/35 13/20/36
f 4/18/37 14/1/38 15/2/39 3/17/40
f 11/16/41 3/17/42 15/2/43 16/13/44
f 18/3/45 5/6/46 10/12/47 17/14/48
f 19/4/49 6/5/50 5/6/51 18/3/52
f 7/10/53 6/5/54 19/4/55 20/19/56
f 40/40/57 29/22/58 21/21/59 31/31/60
f 22/23/61 32/32/62 31/31/63 21/21/64
f 23/24/65 33/33/66 32/32/67 22/23/68
f 30/25/69 34/34/70 33/33/71 23/24/72
f 24/26/73 35/35/74 34/34/75 30/25/76
f 25/27/77 36/36/78 35/35/79 24/26/80
f 26/28/81 37/37/82 36/36/83 25/27/84
f 27/29/85 38/38/86 37/37/87 26/28/88
f 28/30/89 39/39/90 38/38/91 27/29/92
f 29/22/93 40/40/94 39/39/95 28/30/96
f 21/21/97 12/15/98 11/16/99 22/23/100
f 13/20/101 12/15/102 21/21/103 29/22/104
f 22/23/105 11/16/106 16/13/107 23/24/108
f 17/14/109 10/12/110 24/26/111 30/25/112
f 27/29/113 7/10/114 20/19/115 28/30/116
f 10/12/117 7/10/118 27/29/119 24/26/120
f 20/19/121 17/14/122 30/25/123 28/30/124
f 28/30/125 30/25/126 23/24/127 29/22/128
f 29/22/129 23/24/130 16/13/131 13/20/132
f 13/20/133 16/13/134 17/14/135 20/19/136
f 24/26/137 27/29/138 26/28/139 25/27/140
f 7/10/141 10/12/142 9/11/143 8/9/144
usemtl window_panes1SG
f 41/41/145 44/42/146 43/43/147 42/44/148
f 45/45/149 48/46/150 47/47/151 46/48/152
f 48/46/153 41/41/154 42/44/155 47/47/156
f 43/43/157 44/42/158 45/45/159 46/48/160
f 44/42/161 41/41/162 48/46/163 45/45/164
f 42/44/165 43/43/166 46/48/167 47/47/168
